<?xml version="1.0" encoding="utf-8"?>
<!-- Generator: Adobe Illustrator 21.0.0, SVG Export Plug-In . SVG Version: 6.00 Build 0)  -->
<svg version="1.1" id="Layer_1" xmlns="http://www.w3.org/2000/svg" xmlns:xlink="http://www.w3.org/1999/xlink" x="0px" y="0px"
	 viewBox="0 0 153.9 31.7" style="enable-background:new 0 0 153.9 31.7;" xml:space="preserve">
<style type="text/css">
	.st0{clip-path:url(#SVGID_2_);}
	.st1{clip-path:url(#SVGID_4_);}
	.st2{fill:none;stroke:#707070;stroke-width:4;}
	.st3{fill:#707070;}
</style>
<title>logo</title>
<g>
	<g>
		<g>
			<g>
				<defs>
					<rect id="SVGID_1_" x="0.7" y="1.8" width="26" height="28"/>
				</defs>
				<clipPath id="SVGID_2_">
					<use xlink:href="#SVGID_1_"  style="overflow:visible;"/>
				</clipPath>
				<g id="Layer_2" class="st0">
					<g id="Layer_1-2">
						<g>
							<g>
								<defs>
									<rect id="SVGID_3_" x="0.7" y="1.8" width="26" height="28"/>
								</defs>
								<clipPath id="SVGID_4_">
									<use xlink:href="#SVGID_3_"  style="overflow:visible;"/>
								</clipPath>
								<g class="st1">
									<line class="st2" x1="1.7" y1="1.8" x2="1.7" y2="33.8"/>
									<line class="st2" x1="11.5" y1="0.4" x2="-8.6" y2="24.8"/>
									<line class="st2" x1="30.9" y1="-9.2" x2="-7.6" y2="36.8"/>
									<line class="st2" x1="3.2" y1="23.3" x2="30.9" y2="56.8"/>
									<line class="st2" x1="10.2" y1="14.3" x2="36.9" y2="45.8"/>
									<line class="st2" x1="17.2" y1="6.3" x2="43.9" y2="37.8"/>
								</g>
							</g>
						</g>
						<path class="st3" d="M149.7,22.8H148V10.9h-4.2V9.4H154v1.5h-4.2L149.7,22.8z M137.9,16c0.7,0,1.4-0.2,1.9-0.7
							s0.8-1.2,0.7-1.8c0-0.7-0.2-1.4-0.7-1.8c-0.5-0.5-1.2-0.7-1.9-0.7h-3.5v5H137.9z M142.4,22.8h-2l-3.4-5.3h-2.7v5.3h-1.7V9.4
							h5.4c1.1,0,2.2,0.4,3,1.1c0.8,0.8,1.2,1.8,1.2,2.9c0.1,2-1.4,3.7-3.4,3.9L142.4,22.8z M127.4,18.3l-2.8-7.2l-2.8,7.2H127.4z
							 M131,22.8h-1.9l-1.2-3h-6.6l-1.2,3h-1.9l5.4-13.3h2.1L131,22.8z M116.5,22.8h-1.7v-11l-4.5,11h-0.7l-4.5-11v11h-1.7V9.4h2.4
							l4.1,10l4.2-10h2.4L116.5,22.8z M96,23c-1.9,0.1-3.8-0.7-5.1-2.1l1-1.3c1,1.2,2.6,1.9,4.2,1.9c0.9,0.1,1.7-0.2,2.4-0.7
							c0.5-0.4,0.8-1,0.8-1.6c0-0.4-0.1-0.9-0.4-1.2c-0.3-0.3-0.7-0.6-1.1-0.8c-0.5-0.2-1-0.4-1.5-0.5c-0.6-0.1-1.1-0.3-1.7-0.5
							c-0.5-0.2-1-0.4-1.5-0.6c-1-0.5-1.6-1.6-1.6-2.7c0-1,0.5-2,1.3-2.7c0.9-0.7,2.1-1.1,3.3-1c1.8-0.1,3.5,0.6,4.7,1.9l-1,1.2
							c-1-1.1-2.4-1.7-3.9-1.6c-0.7,0-1.4,0.2-2,0.6c-0.5,0.4-0.8,0.9-0.8,1.5c0,0.5,0.2,0.9,0.6,1.2s0.9,0.6,1.5,0.7
							c0.6,0.1,1.2,0.3,1.9,0.5c0.7,0.2,1.3,0.5,1.9,0.7c0.6,0.3,1.1,0.7,1.5,1.2c0.4,0.6,0.6,1.3,0.6,2c0,1.1-0.4,2.1-1.2,2.8
							C98.7,22.7,97.4,23.1,96,23L96,23z M86.7,18.3l-2.8-7.2L81,18.3H86.7z M90.2,22.8h-1.9l-1.2-3h-6.6l-1.2,3h-1.9l5.4-13.3h2
							L90.2,22.8z M73.7,22.8H72V10.9h-4.2V9.4H78v1.5h-4.2L73.7,22.8z M61.5,23c-1.9,0.1-3.8-0.7-5.1-2.1l1-1.3
							c1,1.2,2.6,1.9,4.2,1.9c0.9,0.1,1.7-0.2,2.4-0.7c0.5-0.4,0.8-1,0.8-1.6c0-0.4-0.1-0.9-0.4-1.2c-0.3-0.3-0.7-0.6-1.1-0.8
							c-0.5-0.2-1-0.4-1.5-0.5c-0.6-0.1-1.1-0.3-1.7-0.5c-0.5-0.2-1-0.4-1.5-0.6c-1-0.5-1.6-1.6-1.6-2.7c0-1,0.5-2,1.3-2.7
							c0.9-0.7,2.1-1.1,3.3-1c1.8-0.1,3.5,0.6,4.7,1.9l-1,1.2c-1-1.1-2.4-1.7-3.9-1.6c-0.7,0-1.4,0.2-2,0.6
							c-0.5,0.4-0.8,0.9-0.8,1.5c0,0.5,0.2,0.9,0.6,1.2c0.4,0.3,0.9,0.6,1.5,0.7c0.6,0.1,1.2,0.3,1.9,0.5s1.3,0.5,1.9,0.7
							c0.6,0.2,1.1,0.6,1.5,1.2s0.6,1.3,0.6,2c0,1.1-0.4,2.1-1.2,2.8C64.2,22.7,62.8,23.1,61.5,23L61.5,23z M54,22.8h-1.6l-7.8-10.6
							v10.6H43V9.4h1.7l7.7,10.4V9.4H54V22.8z M39.8,22.8h-1.6V9.4h1.6V22.8z"/>
					</g>
				</g>
			</g>
		</g>
	</g>
</g>
<path class="st3" d="M144.5,23.5h-1.7V11.6h-4.2v-1.5h10.1v1.5h-4.2V23.5z M132.8,16.7c0.8,0,1.4-0.2,1.9-0.7
	c0.5-0.5,0.7-1.1,0.7-1.8s-0.2-1.4-0.7-1.8c-0.5-0.5-1.1-0.7-1.9-0.7h-3.5v5.1H132.8z M137.3,23.5h-2l-3.4-5.3h-2.7v5.3h-1.7V10.2
	h5.4c1.2,0,2.2,0.4,3,1.1c0.8,0.7,1.2,1.7,1.2,2.9c0,1.1-0.3,2.1-1,2.7c-0.7,0.7-1.5,1.1-2.5,1.1L137.3,23.5z M122.3,19.1l-2.8-7.2
	l-2.8,7.2H122.3z M125.9,23.5H124l-1.2-3h-6.6l-1.2,3h-1.9l5.4-13.3h2.1L125.9,23.5z M111.3,23.5h-1.7v-11l-4.5,11h-0.7l-4.5-11v11
	h-1.7V10.2h2.4l4.1,10l4.2-10h2.4V23.5z M90.9,23.7c-2.2,0-3.9-0.7-5.1-2.1l1-1.3c1.1,1.3,2.5,1.9,4.2,1.9c1.1,0,1.9-0.2,2.4-0.7
	s0.8-1,0.8-1.6c0-0.5-0.1-0.9-0.4-1.2c-0.3-0.3-0.7-0.6-1.1-0.8c-0.5-0.2-1-0.3-1.5-0.5c-0.6-0.1-1.1-0.3-1.7-0.5s-1.1-0.4-1.5-0.6
	c-0.5-0.3-0.8-0.6-1.1-1.1s-0.4-1-0.4-1.7c0-1.1,0.4-2,1.3-2.7c0.9-0.7,2-1,3.3-1c2,0,3.6,0.6,4.7,1.9l-1,1.2
	c-1-1.1-2.3-1.6-3.9-1.6c-0.8,0-1.5,0.2-2,0.6c-0.5,0.4-0.8,0.9-0.8,1.5c0,0.5,0.2,0.9,0.6,1.2c0.4,0.3,0.9,0.5,1.5,0.7
	c0.6,0.1,1.2,0.3,1.9,0.5c0.7,0.2,1.3,0.5,1.9,0.7c0.6,0.2,1.1,0.6,1.5,1.2c0.4,0.5,0.6,1.2,0.6,2c0,1.1-0.4,2-1.2,2.8
	C93.8,23.4,92.5,23.7,90.9,23.7z M81.5,19.1l-2.8-7.2l-2.8,7.2H81.5z M85.1,23.5h-1.9l-1.2-3h-6.6l-1.2,3h-1.9l5.4-13.3h2.1
	L85.1,23.5z M68.6,23.5h-1.7V11.6h-4.2v-1.5h10.1v1.5h-4.2V23.5z M56.3,23.7c-2.2,0-3.9-0.7-5.1-2.1l1-1.3c1.1,1.3,2.5,1.9,4.2,1.9
	c1.1,0,1.9-0.2,2.4-0.7c0.5-0.5,0.8-1,0.8-1.6c0-0.5-0.1-0.9-0.4-1.2c-0.3-0.3-0.7-0.6-1.1-0.8c-0.5-0.2-1-0.3-1.5-0.5
	s-1.1-0.3-1.7-0.5s-1.1-0.4-1.5-0.6c-0.5-0.3-0.8-0.6-1.1-1.1s-0.4-1-0.4-1.7c0-1.1,0.4-2,1.3-2.7c0.9-0.7,2-1,3.3-1
	c2,0,3.6,0.6,4.7,1.9l-1,1.2c-1-1.1-2.3-1.6-3.9-1.6c-0.8,0-1.5,0.2-2,0.6c-0.5,0.4-0.8,0.9-0.8,1.5c0,0.5,0.2,0.9,0.6,1.2
	c0.4,0.3,0.9,0.5,1.5,0.7c0.6,0.1,1.2,0.3,1.9,0.5c0.7,0.2,1.3,0.5,1.9,0.7c0.6,0.2,1.1,0.6,1.5,1.2c0.4,0.5,0.6,1.2,0.6,2
	c0,1.1-0.4,2-1.2,2.8S58,23.7,56.3,23.7z M48.9,23.5h-1.6l-7.8-10.6v10.6h-1.7V10.2h1.7l7.7,10.4V10.2h1.7V23.5z M34.7,23.5h-1.7
	V10.2h1.7V23.5z"/>
</svg>
